<svg width="103" height="31" viewBox="0 0 103 31" fill="none" xmlns="http://www.w3.org/2000/svg">
<g clip-path="url(#clip0_2039_5906)">
<path fill-rule="evenodd" clip-rule="evenodd" d="M96.0619 0H6.87568C1.55296 0 0.666504 1.65059 0.666504 5.57612V24.9589C0.666504 28.8817 2.48949 30.5 6.86967 30.5H96.0629C100.446 30.5 102.333 28.879 102.333 24.9535V5.57612C102.333 1.65059 100.445 0 96.0619 0Z" fill="#444444"/>
<path fill-rule="evenodd" clip-rule="evenodd" d="M27.1729 19.4176C26.661 20.434 26.4156 20.8879 25.7565 21.7859C24.836 23.0399 23.5399 24.6017 21.9333 24.6152C20.5059 24.6268 20.1393 23.7827 18.2022 23.7926C16.265 23.8025 15.8603 24.6295 14.432 24.6179C12.8253 24.6044 11.5973 23.1942 10.6768 21.9402C8.10462 18.4327 7.83518 14.3169 9.42178 12.129C10.5496 10.5744 12.3275 9.6639 14.0003 9.6639C15.7031 9.6639 16.7738 10.5 18.1811 10.5C19.5464 10.5 20.3787 9.66211 22.348 9.66211C23.8364 9.66211 25.413 10.3878 26.5358 11.6428C22.8558 13.4504 23.4538 18.1591 27.1729 19.4176Z" fill="white"/>
<path fill-rule="evenodd" clip-rule="evenodd" d="M20.8537 8.25419C21.5689 7.43248 22.1118 6.27079 21.9154 5.08398C20.7475 5.15575 19.3803 5.82136 18.582 6.68971C17.8578 7.47733 17.2598 8.64621 17.4932 9.78188C18.7683 9.81687 20.0874 9.1351 20.8537 8.25419Z" fill="white"/>
<path d="M39.1703 23.2793H40.8576L37.1484 14.1504H35.4255L31.7163 23.2793H33.3751L34.3149 20.812H38.2306L39.1703 23.2793ZM36.2513 15.6687H36.2941L37.8247 19.6733H34.7207L36.2513 15.6687Z" fill="white"/>
<path d="M45.6914 16.5176C44.6094 16.5176 43.7478 17.0048 43.3064 17.7702H43.278V16.6251H41.79V25.4821H43.3279V22.186H43.3634C43.7906 22.9263 44.6449 23.3943 45.72 23.3943C47.5995 23.3943 48.8454 22.0595 48.8454 19.9529C48.8454 17.8461 47.5923 16.5176 45.6914 16.5176ZM45.2857 22.2366C44.1038 22.2366 43.3207 21.3383 43.3207 19.9529C43.3207 18.58 44.1109 17.669 45.2857 17.669C46.5031 17.669 47.2648 18.561 47.2648 19.9529C47.2648 21.3509 46.5031 22.2366 45.2857 22.2366Z" fill="white"/>
<path d="M53.9224 16.5176C52.8403 16.5176 51.9788 17.0048 51.5374 17.7702H51.5089V16.6251H50.021V25.4821H51.5588V22.186H51.5944C52.0216 22.9263 52.8759 23.3943 53.9509 23.3943C55.8304 23.3943 57.0764 22.0595 57.0764 19.9529C57.0764 17.8461 55.8233 16.5176 53.9224 16.5176ZM53.5166 22.2366C52.3348 22.2366 51.5517 21.3383 51.5517 19.9529C51.5517 18.58 52.3419 17.669 53.5166 17.669C54.734 17.669 55.4958 18.561 55.4958 19.9529C55.4958 21.3509 54.734 22.2366 53.5166 22.2366Z" fill="white"/>
<path d="M60.9272 20.7375C61.0269 22.3888 62.5646 23.4326 64.8429 23.4326C67.2778 23.4326 68.8084 22.3635 68.8084 20.6554C68.8084 19.3205 67.9327 18.5676 65.8254 18.1248L64.6934 17.8781C63.3691 17.5871 62.8281 17.2074 62.8281 16.5622C62.8281 15.7524 63.6753 15.1957 64.9141 15.1957C66.1528 15.1957 67.0001 15.746 67.0927 16.6571H68.6446C68.5948 15.0819 67.1069 14 64.9354 14C62.7426 14 61.1978 15.0819 61.1978 16.6571C61.1978 17.9287 62.0734 18.7131 63.9601 19.118L65.2914 19.4027C66.6228 19.6937 67.1852 20.1176 67.1852 20.8262C67.1852 21.6422 66.2526 22.2369 64.9568 22.2369C63.6041 22.2369 62.6145 21.6422 62.5006 20.7375H60.9272Z" fill="white"/>
<path d="M70.4887 15.0488V16.6241H69.3994V17.7059H70.4887V21.527C70.4887 22.8113 71.0797 23.3237 72.5961 23.3237C72.9378 23.3237 73.2795 23.2984 73.4504 23.2604V22.1787C73.3507 22.1976 73.1015 22.2102 72.9449 22.2102C72.3184 22.2102 72.0336 21.9509 72.0336 21.3752V17.7059H73.4575V16.6241H72.0336V15.0488H70.4887Z" fill="white"/>
<path d="M77.7426 23.406C79.8855 23.406 81.2951 22.0964 81.2951 19.9518C81.2951 17.8135 79.8784 16.5039 77.7426 16.5039C75.6067 16.5039 74.1899 17.8135 74.1899 19.9518C74.1899 22.0964 75.5996 23.406 77.7426 23.406ZM77.7426 22.2799C76.5393 22.2799 75.7562 21.4322 75.7562 19.9518C75.7562 18.4778 76.5393 17.63 77.7426 17.63C78.9457 17.63 79.7288 18.4778 79.7288 19.9518C79.7288 21.4322 78.9529 22.2799 77.7426 22.2799Z" fill="white"/>
<path d="M82.4688 23.2805H84.0066V19.2949C84.0066 18.3522 84.6189 17.7639 85.6085 17.7639C85.9075 17.7639 86.178 17.7955 86.299 17.8398V16.5683C86.1851 16.5492 85.9929 16.5176 85.7722 16.5176C84.8894 16.5176 84.2202 16.9795 83.971 17.7576H83.9354V16.6251H82.4688V23.2805Z" fill="white"/>
<path d="M90.0437 17.6047C91.1188 17.6047 91.845 18.3196 91.8806 19.3382H88.1358C88.214 18.3323 88.9688 17.6047 90.0437 17.6047ZM91.8734 21.3246C91.667 21.9066 91.0191 22.2989 90.1434 22.2989C88.9118 22.2989 88.1287 21.5334 88.1287 20.3757V20.2934H93.4184V19.8253C93.4184 17.8072 92.1227 16.5039 90.0437 16.5039C87.9293 16.5039 86.5767 17.8957 86.5767 19.9834C86.5767 22.0838 87.9079 23.406 90.1078 23.406C91.8237 23.406 93.1194 22.5393 93.3329 21.3246H91.8734Z" fill="white"/>
</g>
<path fill-rule="evenodd" clip-rule="evenodd" d="M58.5992 9.86313L60.247 7.4894H60.2741V9.86313H60.9964V6.48399H60.2741L58.6263 8.85129H58.5992V6.48399H57.877V9.86313H58.5992ZM58.3619 5C58.3619 5.60709 58.8162 6.01824 59.4875 6.01824C60.1622 6.01824 60.6166 5.60709 60.6166 5H60.1215C60.1181 5.36296 59.8741 5.63921 59.4875 5.63921C59.1044 5.63921 58.8603 5.36296 58.8569 5H58.3619ZM33.2416 9.95061C34.3401 9.95061 35.0962 9.41093 35.3065 8.49226H34.5436C34.3707 9.0094 33.8994 9.31135 33.245 9.31135C32.3465 9.31135 31.7769 8.6272 31.7769 7.54472C31.7769 6.47187 32.3533 5.78127 33.2416 5.78127C33.8757 5.78127 34.3842 6.13781 34.5436 6.68708H35.3065C35.1437 5.762 34.3198 5.14206 33.2416 5.14206C31.8752 5.14206 31.0005 6.07678 31.0005 7.54472C31.0005 9.02231 31.8685 9.95061 33.2416 9.95061ZM37.4224 8.07096L39.0024 6.48419H38.1277L36.7307 7.92961H36.7037V6.48419H35.9746V9.86333H36.7037V8.30548H36.7307L38.1446 9.86333H39.0634L37.4224 8.07096ZM40.0341 8.88317C40.0341 9.17871 40.2918 9.37137 40.6851 9.37137C41.1971 9.37137 41.5971 9.03735 41.5971 8.59726V8.33067L40.719 8.38206C40.2816 8.41101 40.0341 8.59405 40.0341 8.88317ZM41.6073 9.30715C41.4004 9.68294 40.9495 9.92067 40.4816 9.92067C39.7832 9.92067 39.295 9.50952 39.295 8.90242C39.295 8.31143 39.773 7.94847 40.6206 7.90349L41.5971 7.84889V7.58871C41.5971 7.21284 41.3293 6.98802 40.8817 6.98802C40.4579 6.98802 40.1934 7.18077 40.129 7.48272H39.4373C39.478 6.87239 40.0273 6.4227 40.9088 6.4227C41.7734 6.4227 42.3261 6.85633 42.3261 7.53411V9.86286H41.6243V9.30715H41.6073ZM45.9718 9.86333V6.48419H45.2462V7.81399C45.097 7.981 44.8292 8.12236 44.4324 8.12236C43.9815 8.12236 43.7408 7.85897 43.7408 7.4382V6.48419H43.0118V7.4896C43.0118 8.22835 43.4763 8.71342 44.3172 8.71342C44.7104 8.71342 45.0055 8.59773 45.1987 8.4243H45.2462V9.86333H45.9718ZM49.1326 7.4896L47.4848 9.86333H46.7626V6.48419H47.4848V8.85149H47.5119L49.1597 6.48419H49.8819V9.86333H49.1597V7.4896H49.1326ZM52.1417 6.98849C52.4978 6.98849 52.691 7.14587 52.691 7.42537C52.691 7.72403 52.4842 7.87501 52.0705 7.87501H51.3925V6.98849H52.1417ZM52.118 8.36008C52.5995 8.36008 52.8368 8.52709 52.8368 8.86111C52.8368 9.18559 52.613 9.35901 52.1993 9.35901H51.3925V8.36008H52.118ZM50.6702 9.86333H52.3112C53.0843 9.86333 53.5658 9.48433 53.5658 8.89005C53.5658 8.46608 53.2606 8.15771 52.7995 8.09991V8.07417C53.142 8.01315 53.4064 7.69517 53.4064 7.34504C53.4064 6.81182 52.986 6.48419 52.2909 6.48419H50.6702V9.86333ZM54.8145 8.88317C54.8145 9.17871 55.0722 9.37137 55.4655 9.37137C55.9775 9.37137 56.3776 9.03735 56.3776 8.59726V8.33067L55.4994 8.38206C55.062 8.41101 54.8145 8.59405 54.8145 8.88317ZM56.3878 9.30715C56.1809 9.68294 55.73 9.92067 55.2621 9.92067C54.5636 9.92067 54.0754 9.50952 54.0754 8.90242C54.0754 8.31143 54.5534 7.94847 55.4011 7.90349L56.3776 7.84889V7.58871C56.3776 7.21284 56.1097 6.98802 55.6621 6.98802C55.2383 6.98802 54.9739 7.18077 54.9094 7.48272H54.2178C54.2584 6.87239 54.8078 6.4227 55.6893 6.4227C56.5539 6.4227 57.1065 6.85633 57.1065 7.53411V9.86286H56.4047V9.30715H56.3878ZM61.5281 6.48419H64.4949V7.03347H63.376V9.86333H62.647V7.03347H61.5281V6.48419ZM66.4572 6.9816C66.9692 6.9816 67.315 7.34457 67.332 7.86171H65.5486C65.5858 7.35098 65.9453 6.9816 66.4572 6.9816ZM67.3286 8.87035C67.2303 9.1658 66.9217 9.36496 66.5047 9.36496C65.9181 9.36496 65.5451 8.97634 65.5451 8.38848V8.34671H68.0644V8.10906C68.0644 7.08439 67.4473 6.4227 66.4572 6.4227C65.4503 6.4227 64.806 7.12938 64.806 8.18932C64.806 9.25576 65.4401 9.92708 66.4878 9.92708C67.3049 9.92708 67.9219 9.48707 68.0236 8.87035H67.3286ZM72.1254 7.42537C72.1254 7.14587 71.9321 6.98849 71.5762 6.98849H70.8268V7.87501H71.5049C71.9186 7.87501 72.1254 7.72403 72.1254 7.42537ZM72.2712 8.86111C72.2712 8.52709 72.0339 8.36008 71.5524 8.36008H70.8268V9.35901H71.6338C72.0474 9.35901 72.2712 9.18559 72.2712 8.86111ZM71.7457 9.86333H70.1046V6.48419H71.7253C72.4204 6.48419 72.8408 6.81182 72.8408 7.34504C72.8408 7.69517 72.5763 8.01315 72.2339 8.07417V8.09991C72.695 8.15771 73.0002 8.46608 73.0002 8.89005C73.0002 9.48433 72.5187 9.86333 71.7457 9.86333Z" fill="white"/>
<defs>
<clipPath id="clip0_2039_5906">
<rect width="101.667" height="30.5" fill="white" transform="translate(0.666504)"/>
</clipPath>
</defs>
</svg>
