<svg width="102" height="31" viewBox="0 0 102 31" fill="none" xmlns="http://www.w3.org/2000/svg">
<path fill-rule="evenodd" clip-rule="evenodd" d="M95.3954 0H6.20918C0.886452 0 0 1.65059 0 5.57612V24.9589C0 28.8817 1.823 30.5 6.20318 30.5H95.3964C99.7796 30.5 101.667 28.879 101.667 24.9535V5.57612C101.667 1.65059 99.7786 0 95.3954 0Z" fill="#444444"/>
<path d="M51.124 16.9456C49.2897 16.9456 47.8376 18.0737 47.8376 19.6415C47.8376 21.1462 49.2897 22.3374 51.124 22.3374C52.9583 22.3374 54.4105 21.2093 54.4105 19.6415C54.4105 18.0115 52.9583 16.9456 51.124 16.9456ZM51.124 21.2085C50.131 21.2085 49.2897 20.5191 49.2897 19.5784C49.2897 18.6378 50.13 17.9484 51.124 17.9484C52.1171 17.9484 52.9583 18.5756 52.9583 19.5784C52.9583 20.5191 52.118 21.2085 51.124 21.2085ZM44.0172 16.9456C42.1829 16.9456 40.7308 18.0737 40.7308 19.6415C40.7308 21.1462 42.1829 22.3374 44.0172 22.3374C45.8515 22.3374 47.3037 21.2093 47.3037 19.6415C47.3027 18.0115 45.8515 16.9456 44.0172 16.9456ZM44.0172 21.2085C43.0242 21.2085 42.1829 20.5191 42.1829 19.5784C42.1829 18.6378 43.0232 17.9484 44.0172 17.9484C45.0112 17.9484 45.8515 18.5756 45.8515 19.5784C45.8515 20.5191 45.0103 21.2085 44.0172 21.2085ZM35.5342 17.761V18.8891H38.8206C38.7438 19.5162 38.4384 20.0172 38.0561 20.3308C37.5981 20.7066 36.8336 21.1454 35.5342 21.1454C33.4713 21.1454 31.9423 19.829 31.9423 18.1368C31.9423 16.4446 33.5471 15.1281 35.5342 15.1281C36.604 15.1281 37.4444 15.5039 38.0561 15.9427L39.0491 15.1281C38.2088 14.501 37.139 14 35.61 14C32.8585 14 30.4902 15.8805 30.4902 18.1376C30.4902 20.3946 32.8595 22.2752 35.61 22.2752C37.138 22.2752 38.2078 21.8994 39.125 21.084C40.0422 20.3316 40.3476 19.2657 40.3476 18.4512C40.3476 18.2006 40.3476 17.9493 40.2707 17.7618L35.5342 17.761ZM70.2289 18.6386C69.9235 18.0115 69.159 16.9464 67.4774 16.9464C65.7957 16.9464 64.4205 18.0123 64.4205 19.6423C64.4205 21.147 65.7957 22.3382 67.6301 22.3382C69.0822 22.3382 69.9993 21.5859 70.3048 21.147L69.2349 20.5199C68.8526 20.9587 68.3945 21.2723 67.6301 21.2723C66.8656 21.2723 66.4076 21.0218 66.0253 20.4577L70.3816 18.953L70.2289 18.6386ZM65.7967 19.5162C65.7967 18.5134 66.7898 17.9493 67.4784 17.9493C68.0133 17.9493 68.5483 18.1998 68.701 18.5134L65.7967 19.5162ZM62.2049 22.086H63.657V14.2497H62.2049V22.086ZM59.9125 17.5096C59.5302 17.1961 58.9195 16.8825 58.155 16.8825C56.5502 16.8825 55.0222 18.0737 55.0222 19.5784C55.0222 21.0831 56.4744 22.2113 58.155 22.2113C58.9195 22.2113 59.5302 21.8978 59.8367 21.5842H59.9135V21.96C59.9135 22.9629 59.2258 23.527 58.156 23.527C57.3157 23.527 56.7039 23.0251 56.5512 22.5863L55.3286 23.0251C55.7109 23.7145 56.628 24.592 58.2329 24.592C59.9145 24.592 61.2897 23.7775 61.2897 21.8339V17.0692H59.9145V17.5096H59.9125ZM58.2308 21.2085C57.2379 21.2085 56.3965 20.5191 56.3965 19.5784C56.3965 18.6378 57.2369 17.9484 58.2308 17.9484C59.2248 17.9484 59.9883 18.6378 59.9883 19.5784C59.9883 20.5191 59.2248 21.2085 58.2308 21.2085ZM76.8777 14.2505H73.4385V22.0868H74.8906V19.1405H76.8777C78.4824 19.1405 80.0104 18.1998 80.0104 16.6959C80.0104 15.192 78.4824 14.2505 76.8777 14.2505ZM76.9545 18.0115H74.8916V15.3156H76.9545C78.0243 15.3156 78.6362 16.068 78.6362 16.6321C78.5592 17.3222 77.9475 18.0115 76.9545 18.0115ZM85.742 16.8833C84.6721 16.8833 83.6022 17.2591 83.22 18.0746L84.5194 18.5134C84.8248 18.0746 85.2838 17.9493 85.8188 17.9493C86.5832 17.9493 87.2709 18.325 87.3467 18.9521V19.0152C87.1172 18.8899 86.5064 18.7016 85.8946 18.7016C84.5194 18.7016 83.1432 19.3287 83.1432 20.4569C83.1432 21.5228 84.2898 22.2122 85.5124 22.2122C86.5055 22.2122 86.9645 21.8363 87.3467 21.4597H87.4236V22.0868H88.7988V19.0782C88.6462 17.698 87.3467 16.8833 85.742 16.8833ZM85.5892 21.2085C85.1311 21.2085 84.4426 21.0201 84.4426 20.5191C84.4426 19.892 85.2829 19.7045 85.9705 19.7045C86.5823 19.7045 86.8877 19.8298 87.2699 19.955C87.1182 20.7074 86.3537 21.2085 85.5892 21.2085ZM93.6132 17.0709L92.0085 20.4561H91.9325L90.2509 17.0709H88.723L91.245 21.8356L89.7928 24.4684H91.245L95.1422 17.0709H93.6132ZM80.7749 22.086H82.2269V14.2497H80.7749V22.086Z" fill="white"/>
<path d="M8.6835 6.80664C8.48261 6.87246 8.32666 7.04771 8.32666 7.27398V23.5889C8.32666 23.8135 8.47997 23.9871 8.67822 24.0546L17.9597 15.4285L8.6835 6.80664Z" fill="#00D6FF"/>
<path d="M20.5719 12.9973L9.11857 6.84371C8.97495 6.76637 8.81811 6.76061 8.68066 6.80586L17.9568 15.4278L20.5719 12.9973Z" fill="#00F076"/>
<path d="M9.11898 24.0164L20.5767 17.8604L17.9572 15.4258L8.67578 24.0518C8.81411 24.0995 8.9736 24.0946 9.11898 24.0164Z" fill="#FF3A44"/>
<path d="M20.5785 17.8643L24.3046 15.8624C24.6588 15.6724 24.6588 15.1944 24.3046 15.0043L20.5741 13L17.959 15.4305L20.5785 17.8643Z" fill="#FFD000"/>
<path fill-rule="evenodd" clip-rule="evenodd" d="M57.5987 9.86313L59.2465 7.4894H59.2736V9.86313H59.9959V6.48399H59.2736L57.6258 8.85129H57.5987V6.48399H56.8765V9.86313H57.5987ZM57.3614 5C57.3614 5.60709 57.8157 6.01824 58.4871 6.01824C59.1617 6.01824 59.6161 5.60709 59.6161 5H59.121C59.1176 5.36296 58.8736 5.63921 58.4871 5.63921C58.1039 5.63921 57.8598 5.36296 57.8564 5H57.3614ZM32.2411 9.95061C33.3396 9.95061 34.0957 9.41093 34.306 8.49226H33.5431C33.3702 9.0094 32.8989 9.31135 32.2445 9.31135C31.346 9.31135 30.7764 8.6272 30.7764 7.54472C30.7764 6.47187 31.3528 5.78127 32.2411 5.78127C32.8752 5.78127 33.3837 6.13781 33.5431 6.68708H34.306C34.1432 5.762 33.3193 5.14206 32.2411 5.14206C30.8748 5.14206 30 6.07678 30 7.54472C30 9.02231 30.868 9.95061 32.2411 9.95061ZM36.4219 8.07096L38.0019 6.48419H37.1272L35.7302 7.92961H35.7032V6.48419H34.9741V9.86333H35.7032V8.30548H35.7302L37.1441 9.86333H38.0629L36.4219 8.07096ZM39.0336 8.88317C39.0336 9.17871 39.2913 9.37137 39.6846 9.37137C40.1966 9.37137 40.5966 9.03735 40.5966 8.59726V8.33067L39.7185 8.38206C39.2811 8.41101 39.0336 8.59405 39.0336 8.88317ZM40.6068 9.30715C40.4 9.68294 39.949 9.92067 39.4811 9.92067C38.7827 9.92067 38.2945 9.50952 38.2945 8.90242C38.2945 8.31143 38.7725 7.94847 39.6202 7.90349L40.5966 7.84889V7.58871C40.5966 7.21284 40.3288 6.98802 39.8812 6.98802C39.4574 6.98802 39.1929 7.18077 39.1285 7.48272H38.4368C38.4775 6.87239 39.0268 6.4227 39.9083 6.4227C40.7729 6.4227 41.3256 6.85633 41.3256 7.53411V9.86286H40.6238V9.30715H40.6068ZM44.9713 9.86333V6.48419H44.2457V7.81399C44.0966 7.981 43.8287 8.12236 43.4319 8.12236C42.981 8.12236 42.7403 7.85897 42.7403 7.4382V6.48419H42.0113V7.4896C42.0113 8.22835 42.4759 8.71342 43.3167 8.71342C43.71 8.71342 44.005 8.59773 44.1982 8.4243H44.2457V9.86333H44.9713ZM48.1321 7.4896L46.4843 9.86333H45.7621V6.48419H46.4843V8.85149H46.5114L48.1592 6.48419H48.8814V9.86333H48.1592V7.4896H48.1321ZM51.1412 6.98849C51.4973 6.98849 51.6906 7.14587 51.6906 7.42537C51.6906 7.72403 51.4837 7.87501 51.07 7.87501H50.392V6.98849H51.1412ZM51.1175 8.36008C51.599 8.36008 51.8363 8.52709 51.8363 8.86111C51.8363 9.18559 51.6125 9.35901 51.1989 9.35901H50.392V8.36008H51.1175ZM49.6697 9.86333H51.3107C52.0838 9.86333 52.5653 9.48433 52.5653 8.89005C52.5653 8.46608 52.2601 8.15771 51.7991 8.09991V8.07417C52.1415 8.01315 52.406 7.69517 52.406 7.34504C52.406 6.81182 51.9855 6.48419 51.2904 6.48419H49.6697V9.86333ZM53.814 8.88317C53.814 9.17871 54.0717 9.37137 54.465 9.37137C54.977 9.37137 55.3771 9.03735 55.3771 8.59726V8.33067L54.4989 8.38206C54.0615 8.41101 53.814 8.59405 53.814 8.88317ZM55.3873 9.30715C55.1804 9.68294 54.7295 9.92067 54.2616 9.92067C53.5631 9.92067 53.0749 9.50952 53.0749 8.90242C53.0749 8.31143 53.553 7.94847 54.4006 7.90349L55.3771 7.84889V7.58871C55.3771 7.21284 55.1093 6.98802 54.6616 6.98802C54.2378 6.98802 53.9734 7.18077 53.9089 7.48272H53.2173C53.2579 6.87239 53.8073 6.4227 54.6888 6.4227C55.5534 6.4227 56.106 6.85633 56.106 7.53411V9.86286H55.4042V9.30715H55.3873ZM60.5276 6.48419H63.4944V7.03347H62.3755V9.86333H61.6465V7.03347H60.5276V6.48419ZM65.4567 6.9816C65.9687 6.9816 66.3145 7.34457 66.3315 7.86171H64.5481C64.5853 7.35098 64.9448 6.9816 65.4567 6.9816ZM66.3281 8.87035C66.2298 9.1658 65.9213 9.36496 65.5042 9.36496C64.9176 9.36496 64.5446 8.97634 64.5446 8.38848V8.34671H67.0639V8.10906C67.0639 7.08439 66.4468 6.4227 65.4567 6.4227C64.4498 6.4227 63.8055 7.12938 63.8055 8.18932C63.8055 9.25576 64.4396 9.92708 65.4873 9.92708C66.3044 9.92708 66.9214 9.48707 67.0232 8.87035H66.3281ZM71.1249 7.42537C71.1249 7.14587 70.9316 6.98849 70.5757 6.98849H69.8263V7.87501H70.5044C70.9181 7.87501 71.1249 7.72403 71.1249 7.42537ZM71.2707 8.86111C71.2707 8.52709 71.0334 8.36008 70.5519 8.36008H69.8263V9.35901H70.6333C71.0469 9.35901 71.2707 9.18559 71.2707 8.86111ZM70.7452 9.86333H69.1041V6.48419H70.7248C71.4199 6.48419 71.8403 6.81182 71.8403 7.34504C71.8403 7.69517 71.5759 8.01315 71.2334 8.07417V8.09991C71.6945 8.15771 71.9997 8.46608 71.9997 8.89005C71.9997 9.48433 71.5182 9.86333 70.7452 9.86333Z" fill="white"/>
</svg>
