<svg width="55" height="55" viewBox="0 0 55 55" fill="none" xmlns="http://www.w3.org/2000/svg">
<path d="M27.5 53C41.5833 53 53 41.5833 53 27.5C53 13.4167 41.5833 2 27.5 2C13.4167 2 2 13.4167 2 27.5C2 41.5833 13.4167 53 27.5 53Z" fill="#2C2C2D"/>
<path d="M27.5 53C41.5833 53 53 41.5833 53 27.5C53 13.4167 41.5833 2 27.5 2C13.4167 2 2 13.4167 2 27.5C2 41.5833 13.4167 53 27.5 53Z" fill="white"/>
<path d="M25.1188 17.4461C25.2684 17.318 25.5522 17.3034 25.9713 17.389C26.2762 17.4532 26.6113 17.7442 26.6609 17.8438C26.7015 17.9425 26.7704 18.027 26.859 18.0864C26.9476 18.1459 27.0518 18.1778 27.1585 18.1779C27.2225 18.1779 27.2938 18.1633 27.358 18.1422C27.4889 18.0879 27.5933 17.9845 27.649 17.8542C27.7046 17.7238 27.7071 17.5769 27.6558 17.4448C27.4852 17.0328 26.839 16.4713 26.1851 16.3432C25.4312 16.1865 24.8636 16.2718 24.4432 16.6124C24.2154 16.8051 24.1811 17.1389 24.3721 17.3657C24.4157 17.4202 24.4696 17.4656 24.5308 17.4993C24.592 17.5329 24.6593 17.554 24.7287 17.5615C24.7981 17.569 24.8684 17.5626 24.9353 17.5428C25.0023 17.523 25.0647 17.4902 25.1188 17.4461ZM24.7344 19.8212C24.7344 19.8709 24.7273 19.9208 24.7273 19.9704C24.7416 20.156 24.7769 20.4256 24.9612 20.6607C25.1393 20.8813 25.3946 21.0013 25.6508 21.0013C25.7008 21.0013 25.7507 20.9942 25.8004 20.9871C25.9499 20.9945 26.1137 20.9446 26.2623 20.8447C26.6175 20.5965 26.8595 20.0564 26.8309 19.5942V19.5728C26.8238 19.5371 26.8095 19.5014 26.7952 19.4589C26.7891 19.4294 26.7796 19.4007 26.767 19.3733C26.7599 19.3664 26.7599 19.3593 26.7599 19.3522C26.6885 19.238 26.5961 19.1027 26.4761 18.9613C26.4332 18.9113 26.3904 18.8617 26.3333 18.826C26.2766 18.7618 26.2266 18.6979 26.1556 18.6479C25.8218 18.3998 25.4241 18.2999 25.054 18.3712C24.5849 18.4566 24.2725 18.7975 24.0588 19.0184C23.8596 19.2322 23.8667 19.5731 24.0802 19.7713C24.2654 19.9422 24.5288 19.9555 24.7344 19.8212Z" fill="#2C2C2D"/>
<path d="M52.5147 32.7308C50.5749 31.3285 46.9785 28.9242 41.8179 25.5879L41.7112 25.5133C41.333 25.2706 40.9013 25.124 40.4536 25.0861C39.9154 25.0536 38.6438 24.9323 37.2837 24.8123L36.2908 24.7198C36.7365 23.7175 37.0008 22.3804 37.0793 20.7047C37.1069 19.7065 37.2788 19.3676 37.3489 19.2657H37.358L44.1839 19.6556C44.1933 19.6647 44.2076 19.6647 44.2167 19.6647C44.4629 19.6647 44.6763 19.4928 44.7325 19.2514C44.9135 18.4762 44.821 16.7634 43.1638 15.7838C42.0408 15.1062 40.412 14.9161 38.0732 15.1804C36.3469 10.1162 32.3836 8.57993 29.3253 8.19911C25.8596 7.73525 23.8261 8.72331 22.6009 9.50766C21.0835 10.4643 20.1505 12.2367 19.4405 13.8333C19.2776 14.1904 19.1433 14.567 19.0223 14.9514C18.9623 15.1418 19.0223 15.3413 19.1618 15.4805C19.2267 15.5457 19.2961 15.5875 19.3843 15.6109C19.241 17.3652 18.7343 19.1385 17.8718 20.8928C17.6475 21.3249 17.4168 21.7537 17.1798 22.179C17.1565 22.2166 17.1383 22.2584 17.115 22.2951C17.0291 22.2345 16.927 22.2012 16.8219 22.1995C16.7168 22.1979 16.6137 22.2279 16.5259 22.2857C16.3215 22.4161 16.234 22.6613 16.3082 22.8984L16.3682 23.0885C16.4059 23.2189 16.4477 23.3441 16.4983 23.4784C16.3168 23.8313 16.1512 24.1922 16.002 24.5599C15.5982 25.5908 15.2319 27.0752 15.6124 28.5336C13.9604 29.8289 12.2846 31.0628 11.0743 31.8893C8.86044 33.4113 6.27155 35.6765 5.05577 37.1712C4.66537 37.6529 4.34797 38.1895 4.11377 38.7636C4.3278 39.2067 4.55552 39.6431 4.79659 40.0722C4.85027 39.8634 4.91371 39.6573 4.98668 39.4545C5.01912 39.3569 5.06096 39.2589 5.09859 39.1623C5.18092 38.97 5.27406 38.7825 5.37756 38.6008C5.42816 38.508 5.47909 38.4198 5.53488 38.3361C5.64378 38.1636 5.76305 37.9978 5.89203 37.8398C7.02736 36.4394 9.57051 34.2161 11.6822 32.7723C12.4069 32.276 13.3022 31.6256 14.2624 30.9113C12.9259 33.2413 11.6735 35.6641 10.652 38.4074C10.0538 37.855 9.30095 37.507 8.5818 37.4836C8.30283 37.4927 8.04365 37.7113 8.03457 38.0127C8.03374 38.1525 8.08765 38.287 8.18476 38.3876C8.28188 38.4882 8.41448 38.5468 8.55422 38.5508C9.1433 38.5651 9.80244 38.9641 10.243 39.5308C10.1526 39.7941 10.0661 40.0587 9.98345 40.3245C9.89522 40.5889 9.81153 40.8588 9.73368 41.1322C9.6527 41.4006 9.57528 41.6699 9.50142 41.9403C9.45049 42.1356 9.39437 42.3299 9.34799 42.5294C9.29718 42.7138 9.25067 42.8994 9.2085 43.086C9.14363 43.3364 9.08848 43.5875 9.03236 43.8431C8.97235 44.0984 8.92175 44.3537 8.86985 44.6132C8.81373 44.8727 8.7628 45.1374 8.71609 45.4069C9.01518 45.7203 9.32147 46.0267 9.63474 46.3259C9.67139 46.0888 9.71421 45.8526 9.75476 45.6207C9.80147 45.3612 9.8524 45.1059 9.90852 44.8545C10.2633 43.0881 10.7391 41.3481 11.3326 39.6469C11.3468 39.6193 11.351 39.596 11.3601 39.5674C12.6499 35.9055 14.3438 32.8138 16.1392 29.8156C17.0345 31.4079 18.6733 32.6422 20.6916 33.1989C21.523 33.4266 22.3531 33.5193 23.1423 33.5193C24.7383 33.5193 26.1915 33.1437 27.2726 32.7441C27.8809 32.5209 28.4099 32.289 28.8829 32.0194C30.5401 31.0865 31.946 29.5875 33.2776 27.3551C33.9268 27.6526 34.5534 27.997 35.1525 28.3857C33.6814 28.7989 32.2941 29.7643 31.3378 31.1105C30.0987 32.8375 29.4862 35.1532 29.5602 37.8317C29.6296 38.8337 30.0296 40.0222 30.2005 40.5003C29.6663 40.7702 28.998 40.937 28.237 40.9879C27.6051 41.0803 26.8769 41.0437 26.1117 41.0022C25.3653 40.9603 24.5991 40.9188 23.889 41.0164H23.8524C23.8524 41.0164 23.8433 41.0255 23.8381 41.0255C23.249 41.0813 22.6642 41.3917 22.1027 41.9403C21.3001 41.3603 20.6549 40.3712 20.534 39.5126C20.4454 38.9274 20.483 38.4308 20.5067 38.0318C20.534 37.5212 20.5625 37.1589 20.2981 36.8812C20.2144 36.7885 20.0944 36.7327 19.9643 36.7051V36.696C19.4405 36.4913 18.9062 36.5241 18.4657 36.817C17.8393 37.2303 17.5513 38.0331 17.538 38.6507C17.5237 39.2489 17.6723 39.9226 17.8208 40.5075C16.995 40.4517 15.8064 40.5769 15.1706 41.6675C14.4748 42.6893 13.8952 46.0865 15.5748 47.6322C16.2797 48.2774 17.5237 48.4817 18.8371 48.4817C19.5238 48.4817 20.2157 48.4217 20.8697 48.3426V48.3475C22.1179 50.2412 26.2431 52.0097 30.0438 52.0097C30.6845 52.0097 31.3154 51.9588 31.9188 51.8521C32.8698 51.6617 33.7885 51.3554 34.6572 50.9698C34.6715 51.2069 34.6896 51.4479 34.6987 51.6941C34.7081 51.9027 34.7172 52.1164 34.7224 52.325C34.7224 52.3578 34.7273 52.3902 34.7273 52.4269C35.0791 52.3241 35.4289 52.2142 35.7763 52.0973C35.7625 51.5486 35.7298 51.0005 35.6783 50.454C37.1913 49.6041 38.5095 48.4769 39.4843 47.1022C42.7794 41.6665 42.5004 36.2542 40.8769 32.9312C44.5944 33.067 48.3069 33.3177 52.009 33.6831C52.2409 33.8317 52.4271 33.9946 52.5656 34.1798C52.6724 33.7756 52.77 33.3717 52.8534 32.9585C52.7447 32.8764 52.6317 32.8004 52.5147 32.7308ZM20.4159 14.2715C21.0611 12.8144 21.8918 11.2126 23.1731 10.4049C24.3519 9.65818 26.1007 8.84495 29.1871 9.25822C32.0222 9.61503 35.7163 11.0644 37.1922 15.9187C37.2665 16.1692 37.5127 16.332 37.768 16.2944C40.1026 15.983 41.6427 16.1091 42.6227 16.6982C43.5504 17.2458 43.7181 18.0629 43.7314 18.5686L37.4942 18.1972C36.4364 17.5101 31.0997 14.6043 26.9136 13.9968C24.1057 13.6215 22.3155 13.783 20.4029 14.2991C20.4016 14.2897 20.4068 14.2754 20.4159 14.2715ZM18.1193 22.6905C18.3599 22.25 18.6013 21.8176 18.8238 21.3677C19.59 19.822 20.0996 18.2491 20.3419 16.684C20.3744 16.7586 20.4068 16.8182 20.4668 16.8792C20.6754 17.0839 21.0101 17.0839 21.2187 16.8792C21.2458 16.8505 21.2791 16.8284 21.3162 16.8147C21.3532 16.8009 21.3929 16.7959 21.4322 16.8001C21.4714 16.8036 21.5095 16.8154 21.5439 16.8347C21.5783 16.854 21.6082 16.8803 21.6317 16.912C21.6792 16.9869 21.7451 17.0484 21.8231 17.0906C21.9011 17.1328 21.9887 17.1543 22.0774 17.153C22.1789 17.153 22.2765 17.1258 22.3703 17.0696C22.6113 16.9068 22.6817 16.5772 22.5279 16.332C22.4168 16.1661 22.2707 16.0266 22.0999 15.9232C21.9291 15.8198 21.7377 15.7551 21.5392 15.7335C21.3427 15.7144 21.1444 15.7395 20.9588 15.807C20.7733 15.8744 20.6052 15.9826 20.4668 16.1234C20.4344 16.1468 20.4292 16.1743 20.4068 16.2029C20.4444 15.9239 20.4717 15.6501 20.4863 15.3816C22.3427 14.8668 24.0457 14.6897 26.7598 15.052C27.3998 15.1444 28.068 15.293 28.7366 15.4834C28.709 15.7572 28.6805 16.0306 28.6805 16.3236C28.6847 17.4563 29.0843 18.6539 29.8962 20.0001C30.0305 20.2281 30.1752 20.45 30.3183 20.6687C30.4616 20.8863 30.6102 21.1092 30.7588 21.3281C30.8382 21.4491 30.9216 21.5691 30.9998 21.6849C31.0793 21.8063 31.162 21.9263 31.2369 22.0424C31.3855 22.2792 31.534 22.5154 31.6735 22.7567C30.945 23.7315 29.641 24.4 28.6156 24.6044C28.6247 24.5992 28.6295 24.5901 28.6389 24.5862C28.7784 24.4425 28.9215 24.3072 29.0662 24.1729C29.2705 23.988 29.2939 23.6766 29.1262 23.4535C29.0441 23.3485 28.9258 23.2779 28.7944 23.2555C28.663 23.2331 28.528 23.2606 28.4158 23.3325C27.4926 23.9316 26.4069 24.1499 24.8852 24.0523C23.5903 23.9595 22.3982 23.3471 21.6881 22.4047C21.6501 22.358 21.6229 22.3305 21.5862 22.3123V22.3032C21.3582 22.0567 21.1548 21.779 20.9647 21.5004C21.8091 20.9337 22.4212 20.0147 22.6126 19.0124C22.6502 18.8275 22.575 18.6504 22.4497 18.5342C22.3155 18.1589 22.0644 17.8618 21.7449 17.7132C21.2628 17.4761 20.6728 17.6247 20.3899 18.047C20.218 18.288 20.2975 18.6267 20.5385 18.7989C20.6309 18.8547 20.7286 18.8781 20.8304 18.8875C20.8304 18.9472 20.8214 19.0124 20.8304 19.0776C20.8557 19.3441 20.97 19.5943 21.1548 19.788C20.8856 20.2152 20.5099 20.5762 20.0604 20.8042C20.0185 20.8185 19.99 20.8552 19.9627 20.8837C19.9533 20.8837 19.9394 20.8837 19.9351 20.8889C19.8152 20.9633 19.7292 21.0817 19.6953 21.2188C19.6615 21.3558 19.6826 21.5006 19.7541 21.6223C19.8699 21.8076 19.9952 21.9937 20.1256 22.1699V22.179C20.0834 22.2348 20.0419 22.286 20.0055 22.3133C19.6283 22.6797 19.1249 22.8874 18.599 22.8936C18.4141 22.8936 18.2279 22.866 18.0518 22.8245C18.068 22.7797 18.091 22.7372 18.1193 22.6905ZM18.599 24.1895C19.3925 24.1804 19.9294 24.0485 20.5 23.5C20.5182 23.4766 20.9766 23.5195 21 23.5C21 23.5 21.667 24.4614 21.5 24L20.8006 23.4154C20.8149 23.4297 20.9099 24.1587 20.9284 24.1729C21.8237 25.3326 23.2422 25.0014 24.8057 25.1081C25.2462 25.1357 25.7802 25.1591 26.3417 25.0991C25.7944 25.4429 25.1496 25.6933 24.2948 25.791C22.4108 26.0044 21.6174 25.2239 21.0835 24.4263C21.0439 24.3629 20.991 24.3088 20.9284 24.2679C20.8658 24.227 20.7951 24.2003 20.7211 24.1895C20.6939 24.1843 20.6611 24.1843 20.642 24.1843C20.5116 24.1843 20.3915 24.2258 20.2981 24.3144C19.7223 24.7967 18.6418 24.6949 18.2237 24.389C18.0518 24.2634 17.7811 24.4127 17.6653 24.1895C17.9319 24.2651 18.3162 24.1804 18.599 24.1895ZM33.4281 25.7777C33.1871 25.7128 32.9318 25.8195 32.8157 26.0329C31.4468 28.5443 30.0315 30.15 28.3609 31.0881C27.9431 31.3291 27.4657 31.5429 26.9136 31.7472C25.4474 32.2815 23.2247 32.7872 20.9696 32.1696C18.9227 31.6081 17.3407 30.2577 16.7283 28.5586C16.2735 27.2915 16.3517 27.0374 16.7283 26.0912C16.7559 26.0221 16.7849 26.0175 16.8219 25.9381C16.9614 26.1376 16.8993 26.4555 17.0997 26.595C17.7955 27.0913 19.179 27.3236 20.1256 26.873C20.7052 27.6016 22.0128 28.7162 23.683 28.7162C23.9101 28.7162 24.826 28.3724 25.0803 28.3448C26.3937 28.1962 27.3304 27.7022 28.0823 27.1495L28 27C28.1862 27.047 28.4677 27.2056 28.6805 27.2056C29.9796 27.2056 31.2256 25.7007 32.3447 24.5121C32.5348 24.962 32.5237 24.6634 32.5983 25.0676C32.6399 25.3271 32.8676 25.513 33.1232 25.513C33.1504 25.513 33.179 25.5081 33.2066 25.5081C33.2156 25.5081 33.2156 25.4987 33.2208 25.4987H33.2585C33.4485 25.452 34.1443 25.2067 34.9939 24.0224C35.412 23.4463 35.6255 22.6344 35.6621 22.4858C35.6897 22.2815 35.7964 21.2324 35.1473 20.7225C34.892 20.523 34.4324 20.3472 33.6438 20.6716C33.1369 20.9488 32.6941 21.3299 32.3447 21.79C32.1201 21.4314 31.8865 21.0784 31.644 20.7316C31.3584 20.3102 31.0812 19.8831 30.8126 19.4506C30.0977 18.2582 29.7548 17.2601 29.7496 16.3177C29.7496 16.1458 29.7639 15.9697 29.7772 15.7977C32.5474 16.7125 35.2391 18.1278 36.3998 18.7915C36.1717 19.1995 36.0426 19.822 36.0235 20.6664C35.8749 23.7954 35.0906 25.0154 34.4639 25.4844C33.9247 25.8886 33.4323 25.7777 33.4281 25.7777ZM32.9318 22.8258C33.0661 22.5793 33.4281 22.0048 34.0967 21.6334C34.3562 21.5263 34.472 21.5497 34.4914 21.5639C34.5839 21.6434 34.6449 22.0239 34.6163 22.2834C34.5657 22.4738 34.3795 23.0496 34.1239 23.4019C33.8686 23.7587 33.6458 23.9958 33.4609 24.1587C33.3263 23.6989 33.1492 23.2527 32.9318 22.8258ZM20.5229 47.3104C18.4342 47.5384 16.8749 47.3704 16.3001 46.8414C15.0843 45.7323 15.6134 42.9147 16.0682 42.241C16.6855 41.1971 18.3833 41.6704 18.3976 41.6795C18.5828 41.7353 18.7833 41.6847 18.9176 41.5491C19.057 41.4148 19.1171 41.2156 19.0661 41.0294L18.9734 40.6814C18.8108 40.092 18.589 39.2842 18.6023 38.6718C18.6113 38.2861 18.8108 37.8729 19.057 37.711C19.1362 37.6552 19.2653 37.6043 19.4648 37.6552C19.4557 37.7476 19.4505 37.8596 19.4414 37.9666C19.4181 38.3886 19.3856 38.9647 19.4791 39.6605C19.6328 40.7748 20.4159 42 21.4189 42.761C20.4801 44.089 20.1515 45.7362 20.5229 47.3104ZM38.588 46.5209C37.0518 48.6748 34.5505 50.2389 31.7202 50.8004C27.9847 51.469 23.0885 49.6823 21.7844 47.798C21.0559 46.0671 21.4601 44.0799 22.8241 42.7243C22.8984 42.65 22.9775 42.5809 23.0508 42.5199C23.0885 42.4875 23.1251 42.4599 23.1627 42.4314C23.3947 42.2504 23.6214 42.1433 23.8404 42.0976C23.8871 42.0885 23.9328 42.0794 23.9743 42.0742H23.9837C23.9837 42.0742 23.9876 42.0742 23.9876 42.0691C23.9928 42.0691 23.997 42.0691 23.997 42.0742H24.0019C24.0477 42.0691 24.0905 42.06 24.1362 42.06H24.1547C24.2001 42.0548 24.2423 42.0509 24.289 42.0457C24.3357 42.0405 24.3814 42.0366 24.4285 42.0366C24.9339 42.009 25.4821 42.0366 26.0569 42.0691C26.4772 42.0944 26.8982 42.1084 27.3194 42.1109C27.6817 42.1109 28.0298 42.0966 28.3499 42.0457C29.8443 41.9481 31.1299 41.4099 31.8769 40.5561C32.3551 40.0219 32.5727 39.4052 32.5361 38.7643C32.416 37.2929 32.7446 35.0514 33.7334 33.6163C34.7681 32.1034 36.4526 31.152 38.1232 31.1429C38.1371 31.1429 38.1466 31.1381 38.1505 31.1381C38.1647 31.1429 38.1738 31.1653 38.1881 31.1705C40.946 33.1719 42.6723 39.7857 38.588 46.5209ZM40.6206 31.8491C40.5045 31.84 40.3978 31.8815 40.305 31.9419C39.9154 31.3528 39.4843 30.8458 39.0153 30.4705C39.0063 30.4176 38.9955 30.365 38.9828 30.3128C38.9577 30.2027 38.9219 30.0954 38.8758 29.9923C38.8318 29.8802 38.7791 29.7716 38.7181 29.6676C38.5858 29.4384 38.4237 29.2276 38.2361 29.0409C38.1985 29.0043 38.1618 28.9663 38.1242 28.9339C38.0827 28.8966 38.041 28.8596 37.999 28.8229C37.9562 28.7849 37.9114 28.7493 37.8647 28.7162C37.8083 28.6691 37.7477 28.6272 37.6837 28.591C37.671 28.5787 37.657 28.5678 37.6418 28.5586C37.6006 28.5328 37.5589 28.5079 37.5166 28.484H37.5127C37.4302 28.433 37.345 28.3865 37.2574 28.3448C37.1465 28.289 37.0304 28.2378 36.9094 28.1962C36.8499 28.1757 36.7871 28.1663 36.7241 28.1687H36.706C35.9789 27.6174 35.2057 27.1299 34.3948 26.7115C34.6082 26.6376 34.8353 26.5396 35.063 26.3677C35.3001 26.1958 35.5035 25.982 35.6939 25.7368L37.188 25.8714C37.5319 25.9038 37.8708 25.9314 38.1903 25.9639C38.3337 25.9729 38.4823 25.9872 38.6215 26.0005C38.8586 26.0239 39.0853 26.042 39.2939 26.0605C39.4058 26.0696 39.5116 26.0787 39.6144 26.0881C39.7811 26.102 39.9349 26.1153 40.0649 26.1257C40.1301 26.1348 40.185 26.14 40.2369 26.14C40.2878 26.1449 40.3387 26.1491 40.3806 26.1543C40.6488 26.1776 40.9044 26.261 41.1374 26.4096L41.2441 26.4838C45.1697 29.0276 48.1819 31.0187 50.2654 32.4524C47.0566 32.1639 43.8404 31.9627 40.6206 31.8491Z" fill="#2C2C2D"/>
<path d="M30.9986 21.6854C30.9243 21.5692 30.8452 21.4486 30.7618 21.3285C30.6132 21.1105 30.4647 20.8874 30.3161 20.6687C30.1698 20.4496 30.029 20.2267 29.8938 20.0005C29.0822 18.6543 28.6822 17.4564 28.6783 16.324C28.6783 16.032 28.7056 15.7573 28.7341 15.4838C28.0659 15.2934 27.3977 15.1449 26.7576 15.0524C24.0426 14.6901 22.3396 14.8669 20.4841 15.382C20.4688 15.6566 20.4423 15.9305 20.4046 16.203C20.428 16.1754 20.4319 16.1472 20.4647 16.1235C20.6029 15.9827 20.771 15.8746 20.9565 15.8072C21.142 15.7398 21.3403 15.7147 21.5367 15.7339C21.7352 15.7555 21.9266 15.8203 22.0974 15.9236C22.2683 16.0269 22.4145 16.1663 22.5258 16.3321C22.6792 16.5786 22.6091 16.9082 22.3678 17.0701C22.2798 17.1245 22.1784 17.1534 22.0749 17.1534C21.9862 17.1546 21.8987 17.133 21.8207 17.0908C21.7428 17.0485 21.6769 16.987 21.6295 16.9121C21.6059 16.8806 21.5759 16.8543 21.5416 16.8351C21.5072 16.8158 21.4692 16.8039 21.43 16.8002C21.3906 16.7958 21.3508 16.8007 21.3137 16.8145C21.2765 16.8283 21.2432 16.8506 21.2162 16.8796C21.0077 17.084 20.6732 17.084 20.4647 16.8796C20.4046 16.8196 20.3719 16.7587 20.3394 16.6844C20.0984 18.2482 19.5875 19.8224 18.8217 21.3678C18.5988 21.8177 18.3578 22.2501 18.1168 22.6906C18.0911 22.7327 18.068 22.7762 18.0474 22.821C18.2266 22.8651 18.4103 22.8883 18.5949 22.8901C19.1203 22.8835 19.6232 22.6761 20.0005 22.3104C20.0381 22.2829 20.0796 22.231 20.1205 22.1761V22.1671C19.9897 21.9894 19.8658 21.8067 19.7491 21.6195C19.6775 21.4978 19.6564 21.353 19.6903 21.2159C19.7241 21.0789 19.8101 20.9605 19.9301 20.8861C19.9343 20.8809 19.9486 20.8809 19.9576 20.8809C19.9852 20.8533 20.0134 20.816 20.0553 20.8014C20.5049 20.5737 20.8815 20.2123 21.1501 19.7851C20.9651 19.5916 20.8508 19.3413 20.8257 19.0747C20.816 19.0099 20.8257 18.9447 20.8257 18.8843C20.7227 18.878 20.6227 18.8478 20.5334 18.7961C20.2924 18.6242 20.2129 18.2852 20.3849 18.0439C20.6677 17.6218 21.2574 17.4729 21.7398 17.7104C22.0603 17.859 22.3107 18.1558 22.445 18.5314C22.5699 18.6475 22.6442 18.8233 22.6075 19.0095C22.4174 20.0119 21.805 20.9318 20.9597 21.4975C21.1501 21.7765 21.3544 22.0542 21.5812 22.3004V22.3095C21.6178 22.3276 21.646 22.3562 21.683 22.4019C22.3931 23.3442 23.5852 23.9567 24.8805 24.0494C26.4021 24.1471 27.4878 23.9284 28.4113 23.33C28.5235 23.258 28.6585 23.2305 28.7899 23.253C28.9213 23.2754 29.0395 23.3461 29.1214 23.4513C29.2881 23.6738 29.2648 23.9852 29.0614 24.1704C28.918 24.3047 28.7737 24.44 28.6342 24.5837C28.6251 24.5886 28.6199 24.598 28.6108 24.6019C29.6359 24.3975 30.9402 23.729 31.6688 22.7542C31.5277 22.5134 31.3821 22.2753 31.2322 22.0399C31.1602 21.9267 31.0778 21.8054 30.9986 21.6854ZM26.8306 19.5963C26.8582 20.0563 26.6172 20.5987 26.26 20.8452C26.1115 20.9467 25.9486 20.9934 25.8014 20.9883C25.7504 20.9934 25.6995 21.0025 25.6476 21.0025C25.3923 21.0025 25.137 20.8815 24.9609 20.6587C24.776 20.4268 24.7384 20.1572 24.7241 19.972C24.7241 19.921 24.7332 19.8701 24.7332 19.8234C24.5288 19.9577 24.2641 19.9444 24.0789 19.7725C23.8655 19.573 23.8616 19.234 24.0556 19.0206C24.2693 18.7977 24.5846 18.4587 25.0537 18.3702C25.4199 18.3011 25.8195 18.3978 26.1533 18.6491C26.2234 18.7001 26.2743 18.7601 26.3291 18.825C26.3895 18.8616 26.431 18.9135 26.4738 18.9596C26.5938 19.103 26.6873 19.2385 26.7567 19.3544C26.7567 19.3592 26.7567 19.3686 26.7658 19.3725C26.78 19.4001 26.7839 19.4286 26.793 19.4611C26.8073 19.5029 26.8216 19.5354 26.831 19.572L26.8306 19.5963ZM27.3558 18.1431C27.2906 18.1668 27.2215 18.1811 27.1563 18.1811C27.0499 18.1806 26.9459 18.1487 26.8576 18.0893C26.7693 18.0299 26.7005 17.9457 26.66 17.8473C26.6091 17.7454 26.2743 17.4577 25.9681 17.3925C25.55 17.3091 25.2674 17.3234 25.1189 17.4483C24.8918 17.6335 24.557 17.5969 24.3721 17.3691C24.1765 17.1411 24.2145 16.8073 24.4412 16.6172C24.8594 16.2734 25.43 16.1897 26.1819 16.3473C26.8358 16.4725 27.4859 17.0344 27.6526 17.4473C27.7038 17.5791 27.7014 17.7257 27.6459 17.8558C27.5905 17.9859 27.4863 18.0888 27.3558 18.1431ZM34.4912 21.5634C34.4698 21.5491 34.356 21.5277 34.0932 21.6348C33.425 22.0042 33.0626 22.58 32.9274 22.8294C33.1453 23.2552 33.3238 23.6999 33.4607 24.1581C33.6456 23.9943 33.8655 23.7604 34.1218 23.4052C34.377 23.05 34.5623 22.4742 34.6122 22.2819C34.6398 22.0256 34.5837 21.6419 34.4912 21.5634ZM19.4759 39.6606C19.3832 38.9635 19.4188 38.3887 19.4403 37.9683C19.4474 37.8616 19.4545 37.7477 19.4617 37.6559C19.2622 37.6063 19.135 37.6559 19.0565 37.713C18.8074 37.8768 18.6089 38.2888 18.6021 38.6726C18.5878 39.284 18.8074 40.094 18.9712 40.684L19.0636 41.0321C19.0879 41.124 19.0868 41.2208 19.0606 41.3122C19.0343 41.4035 18.9838 41.4861 18.9144 41.5511C18.8478 41.6178 18.7643 41.665 18.6728 41.6876C18.5813 41.7101 18.4854 41.7073 18.3954 41.6792C18.3812 41.6721 16.6833 41.1959 16.0647 42.2411C15.61 42.9168 15.0841 45.7311 16.2999 46.8401C16.8757 47.3734 18.4321 47.5372 20.5214 47.3092C20.1523 45.7382 20.4789 44.0887 21.4167 42.7598C20.4137 41.9997 19.6313 40.7768 19.4759 39.6606Z" fill="#F9CA86"/>
<path d="M52.0099 33.6821C48.3077 33.3173 44.5951 33.0665 40.8774 32.9302C42.5023 36.2535 42.7799 41.6655 39.4849 47.1011C38.5104 48.4749 37.1928 49.6031 35.6792 50.453C35.7302 50.9869 35.7626 51.5435 35.7769 52.0963C43.9672 49.3387 50.3302 42.5997 52.5662 34.1797C52.427 33.9926 52.2418 33.8294 52.0099 33.6821ZM26.9096 13.9987C31.096 14.6027 36.4328 17.5098 37.4915 18.1997L43.7307 18.5692C43.7164 18.0645 43.5455 17.2473 42.622 16.6998C41.6414 16.1097 40.0989 15.9816 37.7673 16.295C37.6422 16.311 37.5155 16.282 37.41 16.213C37.3045 16.144 37.227 16.0397 37.1915 15.9187C35.7136 11.064 32.0176 9.61401 29.1825 9.25784C26.098 8.84587 24.3502 9.65553 23.1701 10.4026C21.8914 11.2126 21.0594 12.8121 20.4122 14.2692C20.4048 14.277 20.3998 14.2868 20.3979 14.2974C22.3118 13.7859 24.1021 13.6217 26.9099 13.9983L26.9096 13.9987ZM41.2437 26.4799L41.1369 26.4085C40.9084 26.2615 40.6469 26.1734 40.3759 26.1523C39.8287 26.1094 38.5571 25.9956 37.1847 25.8681L35.6922 25.7328C35.4998 25.9813 35.2945 26.1948 35.0597 26.3657C34.8326 26.5367 34.6049 26.6356 34.3911 26.7066C35.2006 27.1264 35.9731 27.6138 36.7004 28.1637H36.7218C36.786 28.1637 36.8428 28.1709 36.907 28.1923C38.1358 28.6399 38.8896 29.6351 39.0106 30.4662C39.4797 30.8428 39.9131 31.3476 40.3036 31.9379C40.3964 31.8808 40.5031 31.838 40.616 31.8452C43.8001 31.959 46.9761 32.1575 50.2598 32.4495C48.1796 31.0147 45.1664 29.0247 41.2437 26.4799Z" fill="#FF6B00"/>
<path d="M28.353 42.0471C28.0334 42.0971 27.6847 42.1114 27.3224 42.1114C26.9104 42.1114 26.4842 42.09 26.0567 42.0686C25.3171 42.0257 24.6213 41.9904 24.003 42.0757C23.9959 42.0757 23.9959 42.0686 23.9887 42.0686C23.9816 42.0757 23.9816 42.0757 23.9745 42.0757C23.6121 42.1042 23.2277 42.3238 22.8229 42.7228C21.4586 44.0804 21.0537 46.0633 21.7849 47.7981C23.0863 49.6818 27.9825 51.4665 31.72 50.798C34.548 50.2361 37.0496 48.6723 38.5859 46.5191C42.6721 39.7872 40.9448 33.1704 38.1882 31.1729C38.1739 31.1658 38.1668 31.1444 38.1525 31.1372C38.1454 31.1372 38.1382 31.1444 38.124 31.1444C36.4534 31.1515 34.7699 32.1039 33.7322 33.6181C32.7444 35.0538 32.4181 37.2933 32.5381 38.7647C32.5738 39.4047 32.3529 40.0224 31.8767 40.5556C31.131 41.4081 29.8451 41.9485 28.353 42.0471ZM9.98356 40.3234C10.0669 40.0535 10.1555 39.7891 10.2431 39.5296C9.80256 38.9629 9.14342 38.5639 8.55434 38.5497C8.41454 38.5457 8.28185 38.4871 8.18467 38.3866C8.08749 38.286 8.03354 38.1514 8.03436 38.0115C8.04344 37.7102 8.30392 37.4915 8.58159 37.4824C9.30107 37.5058 10.0527 37.8539 10.6518 38.4063C11.6723 35.663 12.9257 33.2402 14.2622 30.9102C13.302 31.6244 12.4057 32.2748 11.6823 32.7711C9.5716 34.2153 7.02845 36.4383 5.89085 37.8396C5.7619 37.9977 5.64274 38.1636 5.53403 38.3362C5.47791 38.4196 5.42698 38.5081 5.37638 38.6006C5.27318 38.7826 5.18005 38.9702 5.09741 39.1624C5.05978 39.2601 5.01826 39.3577 4.9855 39.4544C4.9124 39.6571 4.84897 39.8632 4.79541 40.072C5.86929 42.0096 7.18682 43.8018 8.71588 45.4048C8.76292 45.1353 8.81385 44.8706 8.86964 44.6111C8.92057 44.3515 8.9715 44.0963 9.03248 43.841C9.08675 43.5876 9.14537 43.3352 9.20829 43.0839C9.25014 42.8986 9.29685 42.7124 9.34778 42.5272C9.39352 42.3277 9.44963 42.1325 9.50153 41.9381C9.57549 41.6644 9.65497 41.3948 9.73347 41.1301C9.81164 40.8576 9.89501 40.5877 9.98356 40.3234Z" fill="#EF7721"/>
<path d="M34.7002 51.6925C34.6911 51.4463 34.6726 51.2053 34.6587 50.9681C33.791 51.3538 32.8723 51.66 31.9199 51.8501C31.3166 51.9572 30.686 52.0081 30.045 52.0081C26.2446 52.0081 22.1194 50.2396 20.8712 48.3458V48.341C20.2169 48.4201 19.525 48.4801 18.8386 48.4801C17.5252 48.4801 16.2822 48.2758 15.576 47.6306C13.8967 46.0849 14.4763 42.6873 15.1721 41.6659C15.8079 40.575 16.9961 40.4501 17.8223 40.5059C17.6737 39.921 17.5252 39.2483 17.5395 38.6491C17.5537 38.0312 17.8405 37.2287 18.4672 36.8154C18.9077 36.5235 19.4419 36.4907 19.9658 36.6944V36.7035C20.0959 36.7311 20.2159 36.7868 20.2993 36.8796C20.564 37.1583 20.5364 37.5206 20.5079 38.0302C20.4845 38.4292 20.4479 38.9258 20.5354 39.5107C20.6564 40.3696 21.3013 41.3587 22.1041 41.9387C22.6657 41.3911 23.2505 41.0797 23.8396 41.0239C23.8438 41.0239 23.8539 41.0148 23.8539 41.0148H23.8905C24.6006 40.9169 25.3664 40.9587 26.1132 41.0006C26.8794 41.0421 27.6076 41.0797 28.2385 40.9863C28.9992 40.9354 29.6677 40.7683 30.2017 40.4987C30.0298 40.0206 29.6308 38.8321 29.562 37.8297C29.4874 35.1516 30.1001 32.8359 31.339 31.1092C32.2952 29.763 33.6829 28.7973 35.154 28.3844C34.5551 27.9954 33.9284 27.6509 33.2791 27.3535C31.9475 29.5859 30.5413 31.0858 28.8844 32.0178C28.4114 32.2874 27.8824 32.5193 27.2741 32.7421C26.1926 33.1411 24.7397 33.5174 23.1438 33.5174C22.3542 33.5174 21.5242 33.425 20.6931 33.1972C18.6748 32.6406 17.036 31.4054 16.1407 29.8139C14.3453 32.8125 12.6514 35.9036 11.3616 39.5658C11.3522 39.5931 11.3473 39.6167 11.334 39.645C10.7401 41.3461 10.2643 43.0862 9.91001 44.8529C9.85389 45.103 9.80296 45.3586 9.75625 45.6191C9.71345 45.8536 9.67344 46.0886 9.63623 46.324C14.2862 50.7339 20.5744 53.4448 27.4928 53.4448C29.9405 53.4466 32.3762 53.1026 34.7278 52.423C34.7278 52.3867 34.7226 52.3539 34.7226 52.3215C34.7187 52.1148 34.7093 51.9011 34.7002 51.6925Z" fill="#EF7721"/>
<path d="M17.5489 24.9552C18.0886 25.3895 19.4795 25.5318 20.2214 24.8434C20.3413 24.7232 20.5 24.5 20.5 24.5C20.4632 24.4898 20.5276 24.5 20.5 24.5C20.5368 24.5102 20.6963 25.0103 20.7974 25.1923C21.4837 26.3256 22.0739 26.804 24.5 26.5C25.5977 26.3577 26.7953 25.3304 27.5 24.8434C26.7765 24.9247 26.0902 24.8942 25.523 24.8536C23.5096 24.7011 22.1153 24.7524 20.9628 23.1016C20.9353 23.0813 20.9261 23.061 20.9077 23.0407V23.0305C20.8893 23.0203 20.8709 23.0203 20.8617 23C20.8342 23.0305 20.825 23.0508 20.7974 23.0813C20.0652 23.8607 19.0255 23.9898 18 24C17.6332 23.9898 17 24 16.5 23.5C16.6466 23.8142 17.33 24.7723 17.5489 24.9552Z" fill="#6A4A42"/>
<path d="M29.7738 15.7988C29.7572 15.9714 29.7477 16.1445 29.7453 16.3178C29.7524 17.2631 30.0933 18.2583 30.8115 19.4527C31.0739 19.8864 31.3587 20.3126 31.6426 20.732C31.8819 21.0802 32.1139 21.4333 32.3384 21.7911C32.6883 21.3317 33.1314 20.9513 33.6385 20.6749C34.428 20.3483 34.8896 20.5254 35.1452 20.7249C35.7921 21.2364 35.6853 22.2816 35.6568 22.4869C35.6211 22.6368 35.4077 23.4468 34.9886 24.0225C34.1432 25.2098 33.4461 25.4511 33.2541 25.5011H33.2184C33.2113 25.5011 33.2113 25.5082 33.2042 25.5082C33.1756 25.5082 33.1471 25.5153 33.1185 25.5153C32.8632 25.5153 32.6352 25.3301 32.593 25.0677C32.593 24.6698 32.5294 24.3804 32.3384 23.9325C31.2225 25.12 29.0394 26.441 27.7393 26.441C27.5255 26.441 27.3273 26.4196 27.1424 26.3771V26.3842C26.3892 26.9389 25.4576 27.4148 24.1432 27.5643C23.8879 27.5929 23.6456 27.6072 23.4179 27.6072C21.7483 27.6072 20.8164 26.8747 20.2347 26.15C19.2898 26.5977 18.0241 26.4696 17.3283 25.972C17.1288 25.8296 16.9663 25.6524 16.8235 25.4529C16.7879 25.5314 16.7525 25.5957 16.724 25.667C16.3477 26.612 16.2692 27.293 16.724 28.5587C17.3354 30.2578 18.92 31.6079 20.9669 32.1697C23.2194 32.7883 25.4443 32.2839 26.9082 31.7506C27.4626 31.544 27.9388 31.3315 28.3579 31.0892C30.0281 30.1511 31.4421 28.5444 32.8136 26.0353C32.9271 25.8212 33.1827 25.7158 33.4251 25.7797C33.4319 25.7797 33.9223 25.8939 34.4624 25.4887C35.0882 25.0197 35.8696 23.7968 36.0191 20.6697C36.0402 19.8244 36.1687 19.2055 36.3954 18.7935C35.2387 18.1302 32.546 16.7155 29.7738 15.7988Z" fill="#6A4A42"/>
</svg>
