<svg width="132" height="39" viewBox="0 0 132 39" fill="none" xmlns="http://www.w3.org/2000/svg">
<path d="M10.9435 0.369141C13.215 0.369141 15.0092 0.648453 16.3261 1.20708C17.6431 1.75356 18.5613 2.51863 19.0809 3.50229C19.6125 4.47381 19.8783 5.67 19.8783 7.09085C19.8783 8.43883 19.5762 9.6168 18.9721 10.6248C18.368 11.6327 17.4618 12.416 16.2536 12.9746C15.0454 13.5211 13.5593 13.7943 11.7953 13.7943C10.72 13.7943 7.4601 13.7943 6.34854 13.7943C5.23698 13.7943 4.11334 13.7883 2.97761 13.7761C3.07427 11.3838 3.1226 9.15532 3.1226 7.09085C3.1226 5.00208 3.07427 2.82223 2.97761 0.551301C4.41539 0.429861 8.51498 0.369141 10.9435 0.369141ZM12.3028 10.1693C13.4264 10.1693 14.1755 9.89611 14.55 9.34963C14.9246 8.80315 15.1119 8.05022 15.1119 7.09085C15.1119 6.1679 14.9125 5.42104 14.5138 4.85028C14.1272 4.27951 13.3901 3.99413 12.3028 3.99413C11.1308 3.99413 8.08838 4.03056 7.50843 4.10342V10.1693H12.3028Z" fill="white"/>
<path d="M36.8674 6.34399C37.3749 6.64759 37.8461 7.02406 38.281 7.47338C38.8247 8.05629 39.2416 8.706 39.5315 9.42249C39.8215 10.1268 40.1054 10.9951 40.3833 12.0274C40.5766 12.8167 40.7579 13.4057 40.927 13.7943H36.5049C36.4687 13.685 36.3962 13.3329 36.2875 12.7378C36.1908 12.167 36.0881 11.6934 35.9794 11.317C35.8827 10.9405 35.7377 10.6126 35.5444 10.3333C35.2786 9.93254 34.9947 9.6168 34.6926 9.38606C34.3906 9.15533 33.5368 8.98531 33.126 8.87601C33.1501 10.5155 33.1864 12.1549 33.2347 13.7943L29.0986 13.7397C29.159 12.1124 29.1952 10.4912 29.2073 8.87601C28.8448 8.98531 27.9605 9.20997 27.6826 9.44071C27.4168 9.67145 27.1571 9.96897 26.9033 10.3333C26.71 10.6126 26.559 10.9405 26.4502 11.317C26.3536 11.6934 26.2569 12.167 26.1603 12.7378C26.0515 13.3329 25.979 13.685 25.9428 13.7943H21.5207C21.5207 13.7943 21.8711 12.8167 22.0644 12.0274C22.3423 10.9951 22.6262 10.1268 22.9162 9.42249C23.2062 8.706 23.623 8.05629 24.1667 7.47338C24.6017 7.02405 25.0729 6.64759 25.5803 6.34399L21.1582 0.569517H26.0153C26.3415 1.29816 26.7342 2.08145 27.1933 2.91938C27.6524 3.74517 28.6938 4.46774 29.1892 5.19638C29.1892 3.81196 29.159 2.25146 29.0986 0.514869L33.2347 0.569517C33.1864 2.17253 33.1501 3.77553 33.126 5.37854C33.1743 5.37854 33.2045 5.38461 33.2166 5.39676C33.724 4.65597 34.7168 3.86054 35.2001 3.01046C35.6834 2.14824 36.0941 1.33459 36.4324 0.569517H41.2895L36.8674 6.34399Z" fill="white"/>
<path d="M47.7716 10.4608C52.3629 10.4365 55.6915 10.3697 57.7576 10.2604C57.673 10.7583 57.6186 11.2745 57.5944 11.8088C57.5824 12.331 57.5763 12.9928 57.5763 13.7943H43.4945C43.5912 11.4384 43.6395 9.23426 43.6395 7.18193C43.6395 5.12959 43.5912 2.92545 43.4945 0.569518H57.5763V3.86661H47.7716V5.61535C48.3516 5.62749 49.2094 5.63357 50.3451 5.63357C52.2662 5.63357 54.2537 5.59713 56.3077 5.52427V8.65742C54.2537 8.58456 52.2662 8.54813 50.3451 8.54813C49.2094 8.54813 48.3516 8.5542 47.7716 8.56634V10.4608Z" fill="white"/>
<path d="M72.3809 7.47338C73.0938 8.05629 73.6375 8.706 74.012 9.42249C74.3986 10.1268 74.7732 10.9951 75.1356 12.0274C75.4377 12.8653 75.6793 13.4543 75.8606 13.7943H70.5323C70.4598 13.5879 70.3632 13.2296 70.2424 12.7196C70.1215 12.161 69.9886 11.6934 69.8436 11.317C69.7107 10.9405 69.5174 10.6126 69.2637 10.3333C68.8529 9.89611 68.3394 9.6168 67.7232 9.49536C67.1191 9.36177 66.2854 9.29498 65.2222 9.29498V13.7943H60.7095C60.8062 11.4384 60.8545 9.23426 60.8545 7.18193C60.8545 5.12959 60.8062 2.92545 60.7095 0.569517H65.2222V5.32389C65.343 5.33604 65.5243 5.34211 65.7659 5.34211C67.6507 3.47193 69.0523 1.88107 69.9705 0.569517H75.8425L70.2061 6.21648C71.0035 6.53222 71.7285 6.95119 72.3809 7.47338Z" fill="white"/>
<path d="M83.9257 0.587733L83.6176 10.8069L88.0216 0.587733H94.691C94.6064 2.64007 94.5641 4.83813 94.5641 7.18193C94.5641 9.53786 94.6064 11.742 94.691 13.7943H90.0333L90.3595 3.8484L85.9737 13.7943H79.4855C79.5822 11.4384 79.6305 9.23426 79.6305 7.18193C79.6305 5.14173 79.5822 2.94367 79.4855 0.587733H83.9257Z" fill="white"/>
<path d="M112.357 0.569517C112.272 2.62185 112.23 4.82599 112.23 7.18193C112.23 9.53786 112.272 11.742 112.357 13.7943H108.098V8.83958H101.429V13.7943H97.1697C97.2663 11.4384 97.3146 9.23426 97.3146 7.18193C97.3146 5.12959 97.2663 2.92545 97.1697 0.569517H101.429V5.52427H108.098V0.569517H112.357Z" fill="white"/>
<path d="M126.716 13.7943C126.486 13.1021 126.178 12.2338 125.792 11.1894H120.01L119.104 13.7943H114.555L119.63 0.569517H126.299L131.41 13.7943H126.716ZM124.759 8.34775C124.3 7.07263 123.828 5.79751 123.345 4.52239L122.91 3.33835C122.487 4.44345 121.865 6.11325 121.043 8.34775H124.759Z" fill="white"/>
<path d="M15.822 32.4046H16.56V38.5786H12.294V35.9686H4.266V38.6326H0V32.4046H0.9C1.416 32.3086 1.812 32.0986 2.088 31.7746C2.364 31.4506 2.568 30.9346 2.7 30.2266C2.808 29.6386 2.862 28.3006 2.862 26.2126L2.844 22.5406L15.822 22.5586V32.4046ZM6.894 31.6306C6.822 31.9666 6.756 32.2246 6.696 32.4046H11.268V26.0686H7.236L7.218 27.1126C7.218 28.0246 7.194 28.8286 7.146 29.5246C7.11 30.2086 7.026 30.9106 6.894 31.6306Z" fill="white"/>
<path d="M25.6493 35.7886C22.9013 35.7886 20.8793 35.1946 19.5833 34.0066C18.2873 32.8066 17.6393 31.1266 17.6393 28.9666C17.6393 26.8306 18.2813 25.1626 19.5653 23.9626C20.8613 22.7626 22.8893 22.1626 25.6493 22.1626C28.4213 22.1626 30.4493 22.7626 31.7333 23.9626C33.0293 25.1626 33.6773 26.8306 33.6773 28.9666C33.6773 31.1386 33.0353 32.8186 31.7513 34.0066C30.4673 35.1946 28.4333 35.7886 25.6493 35.7886ZM25.6493 32.1166C26.9813 32.1166 27.9413 31.8646 28.5293 31.3606C29.1173 30.8446 29.4113 30.0466 29.4113 28.9666C29.4113 27.9106 29.1173 27.1246 28.5293 26.6086C27.9413 26.0926 26.9813 25.8346 25.6493 25.8346C24.3293 25.8346 23.3753 26.0926 22.7873 26.6086C22.1993 27.1246 21.9053 27.9106 21.9053 28.9666C21.9053 30.0346 22.1993 30.8266 22.7873 31.3426C23.3753 31.8586 24.3293 32.1166 25.6493 32.1166Z" fill="white"/>
<path d="M42.672 35.7886C39.9599 35.7886 37.962 35.2126 36.678 34.0606C35.394 32.9086 34.752 31.2646 34.752 29.1286C34.752 26.9806 35.394 25.2826 36.678 24.0346C37.962 22.7866 39.9599 22.1626 42.672 22.1626C46.464 22.1626 49.002 23.4646 50.286 26.0686C49.206 26.4406 47.94 26.9986 46.488 27.7426C46.14 27.0706 45.588 26.5726 44.832 26.2486C44.088 25.9246 43.326 25.7626 42.546 25.7626C41.394 25.7626 40.5359 26.0686 39.972 26.6806C39.408 27.2806 39.126 28.0246 39.126 28.9126C39.126 29.8726 39.426 30.6586 40.026 31.2706C40.638 31.8706 41.568 32.1706 42.816 32.1706C43.812 32.1706 44.604 32.0086 45.192 31.6846C45.78 31.3486 46.212 30.8206 46.488 30.1006C47.472 30.6286 48.732 31.2226 50.268 31.8826C49.668 33.3346 48.666 34.3486 47.262 34.9246C45.858 35.5006 44.3279 35.7886 42.672 35.7886Z" fill="white"/>
<path d="M66.8344 26.3206C64.9504 26.2606 63.1204 26.2246 61.3444 26.2126V35.6086H56.8444V26.2126C55.0564 26.2246 53.2324 26.2606 51.3724 26.3206V22.5406H66.8344V26.3206Z" fill="white"/>
<path d="M77.4806 35.6086C77.2526 34.9246 76.9466 34.0666 76.5626 33.0346H70.8206L69.9206 35.6086H65.4026L70.4426 22.5406H77.0666L82.1426 35.6086H77.4806ZM75.5366 30.2266C75.0806 28.9666 74.6126 27.7066 74.1326 26.4466L73.7006 25.2766C73.2806 26.3686 72.6626 28.0186 71.8466 30.2266H75.5366Z" fill="white"/>
<path d="M93.651 29.1106C96.387 29.1106 97.7551 29.9806 97.7551 31.7206C97.7551 32.5366 97.5691 33.2326 97.1971 33.8086C96.8251 34.3726 96.159 34.8166 95.1991 35.1406C94.2391 35.4526 92.9071 35.6086 91.203 35.6086H83.1031C83.1991 33.2806 83.247 31.1026 83.247 29.0746C83.247 27.0466 83.1991 24.8686 83.1031 22.5406H87.333V22.5586H91.1671C92.6551 22.5586 93.8251 22.6846 94.677 22.9366C95.541 23.1766 96.147 23.5306 96.495 23.9986C96.855 24.4666 97.035 25.0606 97.035 25.7806C97.035 26.5126 96.777 27.1666 96.261 27.7426C95.757 28.3066 94.887 28.7626 93.651 29.1106ZM87.333 25.8346V27.5086H90.789C91.5331 27.5086 92.049 27.4426 92.3371 27.3106C92.6371 27.1786 92.787 26.9386 92.787 26.5906C92.787 26.3146 92.631 26.1226 92.319 26.0146C92.019 25.8946 91.509 25.8346 90.789 25.8346H87.333ZM90.789 32.3146C91.413 32.3146 91.8871 32.2906 92.2111 32.2426C92.5471 32.1826 92.7871 32.0866 92.9311 31.9546C93.0751 31.8106 93.147 31.6186 93.147 31.3786C93.147 31.0666 92.973 30.8446 92.625 30.7126C92.289 30.5686 91.677 30.4966 90.789 30.4966H87.333V32.3146H90.789Z" fill="white"/>
<path d="M110.779 29.3626C111.487 29.9386 112.027 30.5806 112.399 31.2886C112.783 31.9846 113.155 32.8426 113.515 33.8626C113.815 34.6906 114.055 35.2726 114.235 35.6086H108.943C108.871 35.4046 108.775 35.0506 108.655 34.5466C108.535 33.9946 108.403 33.5326 108.259 33.1606C108.127 32.7886 107.935 32.4646 107.683 32.1886C107.275 31.7566 106.765 31.4806 106.153 31.3606C105.553 31.2286 104.725 31.1626 103.669 31.1626V35.6086H99.187C99.283 33.2806 99.331 31.1026 99.331 29.0746C99.331 27.0466 99.283 24.8686 99.187 22.5406H103.669V27.2386C103.789 27.2506 103.969 27.2566 104.209 27.2566C106.081 25.4086 107.473 23.8366 108.385 22.5406H114.217L108.619 28.1206C109.411 28.4326 110.131 28.8466 110.779 29.3626Z" fill="white"/>
<path d="M127.033 35.6086C126.805 34.9246 126.499 34.0666 126.115 33.0346H120.373L119.473 35.6086H114.955L119.995 22.5406H126.619L131.695 35.6086H127.033ZM125.089 30.2266C124.633 28.9666 124.165 27.7066 123.685 26.4466L123.253 25.2766C122.833 26.3686 122.215 28.0186 121.399 30.2266H125.089Z" fill="white"/>
</svg>
